<svg xmlns="http://www.w3.org/2000/svg" xmlns:xlink="http://www.w3.org/1999/xlink" width="1080" zoomAndPan="magnify" viewBox="0 0 810 809.999993" height="1080" preserveAspectRatio="xMidYMid meet" version="1.0"><defs><g/></defs><rect x="-81" width="972" fill="#ffffff" y="-80.999999" height="971.999992" fill-opacity="1"/><rect x="-81" width="972" fill="#ffffff" y="-80.999999" height="971.999992" fill-opacity="1"/><g fill="#000000" fill-opacity="1"><g transform="translate(48.720704, 380.250001)"><g><path d="M 41.09375 0 L 37.8125 -14.890625 L 33.40625 -33.703125 L 33.140625 -33.703125 L 25.359375 0 L 12.875 0 L 0.765625 -42.578125 L 12.34375 -42.578125 L 17.25 -23.734375 C 18.039062 -20.347656 18.84375 -15.6875 19.65625 -9.75 L 19.875 -9.75 C 19.976562 -11.675781 20.425781 -14.734375 21.21875 -18.921875 L 21.828125 -22.171875 L 27.078125 -42.578125 L 39.875 -42.578125 L 44.859375 -22.171875 C 44.960938 -21.609375 45.125 -20.78125 45.34375 -19.6875 C 45.5625 -18.59375 45.769531 -17.429688 45.96875 -16.203125 C 46.175781 -14.972656 46.359375 -13.765625 46.515625 -12.578125 C 46.679688 -11.398438 46.78125 -10.457031 46.8125 -9.75 L 47.03125 -9.75 C 47.257812 -11.582031 47.664062 -14.085938 48.25 -17.265625 C 48.832031 -20.453125 49.253906 -22.609375 49.515625 -23.734375 L 54.609375 -42.578125 L 66 -42.578125 L 53.734375 0 Z M 41.09375 0 "/></g></g><g transform="translate(115.485349, 380.250001)"><g><path d="M 41.09375 0 L 37.8125 -14.890625 L 33.40625 -33.703125 L 33.140625 -33.703125 L 25.359375 0 L 12.875 0 L 0.765625 -42.578125 L 12.34375 -42.578125 L 17.25 -23.734375 C 18.039062 -20.347656 18.84375 -15.6875 19.65625 -9.75 L 19.875 -9.75 C 19.976562 -11.675781 20.425781 -14.734375 21.21875 -18.921875 L 21.828125 -22.171875 L 27.078125 -42.578125 L 39.875 -42.578125 L 44.859375 -22.171875 C 44.960938 -21.609375 45.125 -20.78125 45.34375 -19.6875 C 45.5625 -18.59375 45.769531 -17.429688 45.96875 -16.203125 C 46.175781 -14.972656 46.359375 -13.765625 46.515625 -12.578125 C 46.679688 -11.398438 46.78125 -10.457031 46.8125 -9.75 L 47.03125 -9.75 C 47.257812 -11.582031 47.664062 -14.085938 48.25 -17.265625 C 48.832031 -20.453125 49.253906 -22.609375 49.515625 -23.734375 L 54.609375 -42.578125 L 66 -42.578125 L 53.734375 0 Z M 41.09375 0 "/></g></g><g transform="translate(182.249994, 380.250001)"><g><path d="M 41.09375 0 L 37.8125 -14.890625 L 33.40625 -33.703125 L 33.140625 -33.703125 L 25.359375 0 L 12.875 0 L 0.765625 -42.578125 L 12.34375 -42.578125 L 17.25 -23.734375 C 18.039062 -20.347656 18.84375 -15.6875 19.65625 -9.75 L 19.875 -9.75 C 19.976562 -11.675781 20.425781 -14.734375 21.21875 -18.921875 L 21.828125 -22.171875 L 27.078125 -42.578125 L 39.875 -42.578125 L 44.859375 -22.171875 C 44.960938 -21.609375 45.125 -20.78125 45.34375 -19.6875 C 45.5625 -18.59375 45.769531 -17.429688 45.96875 -16.203125 C 46.175781 -14.972656 46.359375 -13.765625 46.515625 -12.578125 C 46.679688 -11.398438 46.78125 -10.457031 46.8125 -9.75 L 47.03125 -9.75 C 47.257812 -11.582031 47.664062 -14.085938 48.25 -17.265625 C 48.832031 -20.453125 49.253906 -22.609375 49.515625 -23.734375 L 54.609375 -42.578125 L 66 -42.578125 L 53.734375 0 Z M 41.09375 0 "/></g></g><g transform="translate(249.014639, 380.250001)"><g><path d="M 4.453125 -5.453125 C 4.453125 -7.578125 5.023438 -9.1875 6.171875 -10.28125 C 7.316406 -11.375 8.976562 -11.921875 11.15625 -11.921875 C 13.269531 -11.921875 14.898438 -11.359375 16.046875 -10.234375 C 17.203125 -9.117188 17.78125 -7.523438 17.78125 -5.453125 C 17.78125 -3.441406 17.195312 -1.859375 16.03125 -0.703125 C 14.863281 0.453125 13.238281 1.03125 11.15625 1.03125 C 9.019531 1.03125 7.367188 0.46875 6.203125 -0.65625 C 5.035156 -1.789062 4.453125 -3.390625 4.453125 -5.453125 Z M 4.453125 -5.453125 "/></g></g><g transform="translate(271.256826, 380.250001)"><g><path d="M 35.796875 -12.640625 C 35.796875 -8.273438 34.28125 -4.945312 31.25 -2.65625 C 28.21875 -0.375 23.679688 0.765625 17.640625 0.765625 C 14.535156 0.765625 11.890625 0.550781 9.703125 0.125 C 7.523438 -0.289062 5.484375 -0.90625 3.578125 -1.71875 L 3.578125 -11.3125 C 5.734375 -10.289062 8.164062 -9.4375 10.875 -8.75 C 13.582031 -8.070312 15.960938 -7.734375 18.015625 -7.734375 C 22.234375 -7.734375 24.34375 -8.953125 24.34375 -11.390625 C 24.34375 -12.304688 24.0625 -13.046875 23.5 -13.609375 C 22.9375 -14.179688 21.96875 -14.828125 20.59375 -15.546875 C 19.226562 -16.273438 17.40625 -17.125 15.125 -18.09375 C 11.84375 -19.457031 9.429688 -20.722656 7.890625 -21.890625 C 6.359375 -23.066406 5.242188 -24.410156 4.546875 -25.921875 C 3.847656 -27.429688 3.5 -29.289062 3.5 -31.5 C 3.5 -35.28125 4.960938 -38.203125 7.890625 -40.265625 C 10.828125 -42.335938 14.988281 -43.375 20.375 -43.375 C 25.5 -43.375 30.488281 -42.257812 35.34375 -40.03125 L 31.84375 -31.65625 C 29.707031 -32.5625 27.710938 -33.304688 25.859375 -33.890625 C 24.003906 -34.472656 22.113281 -34.765625 20.1875 -34.765625 C 16.757812 -34.765625 15.046875 -33.84375 15.046875 -32 C 15.046875 -30.957031 15.597656 -30.050781 16.703125 -29.28125 C 17.804688 -28.519531 20.222656 -27.394531 23.953125 -25.90625 C 27.285156 -24.550781 29.722656 -23.289062 31.265625 -22.125 C 32.816406 -20.957031 33.957031 -19.613281 34.6875 -18.09375 C 35.425781 -16.570312 35.796875 -14.753906 35.796875 -12.640625 Z M 35.796875 -12.640625 "/></g></g><g transform="translate(310.028308, 380.250001)"><g><path d="M 33.140625 0 L 30.890625 -5.796875 L 30.578125 -5.796875 C 28.628906 -3.328125 26.617188 -1.613281 24.546875 -0.65625 C 22.472656 0.289062 19.773438 0.765625 16.453125 0.765625 C 12.367188 0.765625 9.148438 -0.398438 6.796875 -2.734375 C 4.453125 -5.078125 3.28125 -8.40625 3.28125 -12.71875 C 3.28125 -17.238281 4.859375 -20.570312 8.015625 -22.71875 C 11.179688 -24.863281 15.945312 -26.050781 22.3125 -26.28125 L 29.703125 -26.515625 L 29.703125 -28.375 C 29.703125 -32.6875 27.492188 -34.84375 23.078125 -34.84375 C 19.679688 -34.84375 15.679688 -33.816406 11.078125 -31.765625 L 7.234375 -39.609375 C 12.140625 -42.171875 17.570312 -43.453125 23.53125 -43.453125 C 29.25 -43.453125 33.628906 -42.207031 36.671875 -39.71875 C 39.722656 -37.226562 41.25 -33.445312 41.25 -28.375 L 41.25 0 Z M 29.703125 -19.734375 L 25.21875 -19.578125 C 21.832031 -19.472656 19.316406 -18.863281 17.671875 -17.75 C 16.023438 -16.632812 15.203125 -14.929688 15.203125 -12.640625 C 15.203125 -9.367188 17.078125 -7.734375 20.828125 -7.734375 C 23.523438 -7.734375 25.675781 -8.503906 27.28125 -10.046875 C 28.894531 -11.597656 29.703125 -13.65625 29.703125 -16.21875 Z M 29.703125 -19.734375 "/></g></g><g transform="translate(357.14061, 380.250001)"><g><path d="M 23.390625 0.765625 C 10.128906 0.765625 3.5 -6.507812 3.5 -21.0625 C 3.5 -28.300781 5.300781 -33.828125 8.90625 -37.640625 C 12.519531 -41.460938 17.6875 -43.375 24.40625 -43.375 C 29.332031 -43.375 33.753906 -42.410156 37.671875 -40.484375 L 34.234375 -31.5 C 32.410156 -32.238281 30.710938 -32.84375 29.140625 -33.3125 C 27.566406 -33.78125 25.988281 -34.015625 24.40625 -34.015625 C 18.363281 -34.015625 15.34375 -29.722656 15.34375 -21.140625 C 15.34375 -12.804688 18.363281 -8.640625 24.40625 -8.640625 C 26.644531 -8.640625 28.71875 -8.9375 30.625 -9.53125 C 32.53125 -10.132812 34.429688 -11.070312 36.328125 -12.34375 L 36.328125 -2.40625 C 34.453125 -1.207031 32.554688 -0.378906 30.640625 0.078125 C 28.722656 0.535156 26.304688 0.765625 23.390625 0.765625 Z M 23.390625 0.765625 "/></g></g><g transform="translate(397.245101, 380.250001)"><g><path d="M 33.140625 0 L 30.890625 -5.796875 L 30.578125 -5.796875 C 28.628906 -3.328125 26.617188 -1.613281 24.546875 -0.65625 C 22.472656 0.289062 19.773438 0.765625 16.453125 0.765625 C 12.367188 0.765625 9.148438 -0.398438 6.796875 -2.734375 C 4.453125 -5.078125 3.28125 -8.40625 3.28125 -12.71875 C 3.28125 -17.238281 4.859375 -20.570312 8.015625 -22.71875 C 11.179688 -24.863281 15.945312 -26.050781 22.3125 -26.28125 L 29.703125 -26.515625 L 29.703125 -28.375 C 29.703125 -32.6875 27.492188 -34.84375 23.078125 -34.84375 C 19.679688 -34.84375 15.679688 -33.816406 11.078125 -31.765625 L 7.234375 -39.609375 C 12.140625 -42.171875 17.570312 -43.453125 23.53125 -43.453125 C 29.25 -43.453125 33.628906 -42.207031 36.671875 -39.71875 C 39.722656 -37.226562 41.25 -33.445312 41.25 -28.375 L 41.25 0 Z M 29.703125 -19.734375 L 25.21875 -19.578125 C 21.832031 -19.472656 19.316406 -18.863281 17.671875 -17.75 C 16.023438 -16.632812 15.203125 -14.929688 15.203125 -12.640625 C 15.203125 -9.367188 17.078125 -7.734375 20.828125 -7.734375 C 23.523438 -7.734375 25.675781 -8.503906 27.28125 -10.046875 C 28.894531 -11.597656 29.703125 -13.65625 29.703125 -16.21875 Z M 29.703125 -19.734375 "/></g></g><g transform="translate(444.357403, 380.250001)"><g><path d="M 24.03125 -8.5 C 26.0625 -8.5 28.5 -8.941406 31.34375 -9.828125 L 31.34375 -1.1875 C 28.445312 0.113281 24.894531 0.765625 20.6875 0.765625 C 16.039062 0.765625 12.65625 -0.40625 10.53125 -2.75 C 8.40625 -5.101562 7.34375 -8.628906 7.34375 -13.328125 L 7.34375 -33.859375 L 1.796875 -33.859375 L 1.796875 -38.765625 L 8.1875 -42.65625 L 11.546875 -51.640625 L 18.96875 -51.640625 L 18.96875 -42.578125 L 30.890625 -42.578125 L 30.890625 -33.859375 L 18.96875 -33.859375 L 18.96875 -13.328125 C 18.96875 -11.679688 19.429688 -10.460938 20.359375 -9.671875 C 21.285156 -8.890625 22.507812 -8.5 24.03125 -8.5 Z M 24.03125 -8.5 "/></g></g><g transform="translate(478.2158, 380.250001)"><g><path d="M 23.734375 -35.109375 C 21.265625 -35.109375 19.332031 -34.328125 17.9375 -32.765625 C 16.539062 -31.210938 15.742188 -29 15.546875 -26.125 L 31.84375 -26.125 C 31.789062 -29 31.039062 -31.210938 29.59375 -32.765625 C 28.144531 -34.328125 26.191406 -35.109375 23.734375 -35.109375 Z M 25.359375 0.765625 C 18.503906 0.765625 13.144531 -1.125 9.28125 -4.90625 C 5.425781 -8.695312 3.5 -14.054688 3.5 -20.984375 C 3.5 -28.117188 5.28125 -33.632812 8.84375 -37.53125 C 12.414062 -41.425781 17.351562 -43.375 23.65625 -43.375 C 29.664062 -43.375 34.347656 -41.660156 37.703125 -38.234375 C 41.054688 -34.804688 42.734375 -30.070312 42.734375 -24.03125 L 42.734375 -18.390625 L 15.265625 -18.390625 C 15.398438 -15.085938 16.378906 -12.507812 18.203125 -10.65625 C 20.035156 -8.8125 22.601562 -7.890625 25.90625 -7.890625 C 28.46875 -7.890625 30.890625 -8.15625 33.171875 -8.6875 C 35.453125 -9.21875 37.835938 -10.066406 40.328125 -11.234375 L 40.328125 -2.25 C 38.296875 -1.226562 36.125 -0.472656 33.8125 0.015625 C 31.507812 0.515625 28.691406 0.765625 25.359375 0.765625 Z M 25.359375 0.765625 "/></g></g><g transform="translate(524.299782, 380.250001)"><g><path d="M 36.265625 0 L 34.703125 -5.453125 L 34.09375 -5.453125 C 32.84375 -3.460938 31.070312 -1.925781 28.78125 -0.84375 C 26.5 0.226562 23.898438 0.765625 20.984375 0.765625 C 15.984375 0.765625 12.210938 -0.570312 9.671875 -3.25 C 7.128906 -5.9375 5.859375 -9.789062 5.859375 -14.8125 L 5.859375 -42.578125 L 17.484375 -42.578125 L 17.484375 -17.703125 C 17.484375 -14.640625 18.023438 -12.335938 19.109375 -10.796875 C 20.203125 -9.265625 21.945312 -8.5 24.34375 -8.5 C 27.59375 -8.5 29.9375 -9.582031 31.375 -11.75 C 32.820312 -13.914062 33.546875 -17.515625 33.546875 -22.546875 L 33.546875 -42.578125 L 45.171875 -42.578125 L 45.171875 0 Z M 36.265625 0 "/></g></g><g transform="translate(575.563451, 380.250001)"><g><path d="M 45.40625 0 L 33.78125 0 L 33.78125 -24.875 C 33.78125 -27.945312 33.234375 -30.25 32.140625 -31.78125 C 31.046875 -33.320312 29.304688 -34.09375 26.921875 -34.09375 C 23.671875 -34.09375 21.320312 -33.003906 19.875 -30.828125 C 18.425781 -28.660156 17.703125 -25.0625 17.703125 -20.03125 L 17.703125 0 L 6.09375 0 L 6.09375 -42.578125 L 14.96875 -42.578125 L 16.53125 -37.140625 L 17.171875 -37.140625 C 18.472656 -39.191406 20.257812 -40.742188 22.53125 -41.796875 C 24.800781 -42.847656 27.382812 -43.375 30.28125 -43.375 C 35.226562 -43.375 38.984375 -42.035156 41.546875 -39.359375 C 44.117188 -36.679688 45.40625 -32.816406 45.40625 -27.765625 Z M 45.40625 0 "/></g></g><g transform="translate(626.82712, 380.250001)"><g><path d="M 15.34375 -21.359375 C 15.34375 -17.148438 16.035156 -13.960938 17.421875 -11.796875 C 18.804688 -9.640625 21.0625 -8.5625 24.1875 -8.5625 C 27.28125 -8.5625 29.503906 -9.632812 30.859375 -11.78125 C 32.222656 -13.925781 32.90625 -17.117188 32.90625 -21.359375 C 32.90625 -25.578125 32.21875 -28.738281 30.84375 -30.84375 C 29.476562 -32.957031 27.234375 -34.015625 24.109375 -34.015625 C 21.015625 -34.015625 18.78125 -32.96875 17.40625 -30.875 C 16.03125 -28.78125 15.34375 -25.609375 15.34375 -21.359375 Z M 44.796875 -21.359375 C 44.796875 -14.429688 42.96875 -9.007812 39.3125 -5.09375 C 35.65625 -1.1875 30.5625 0.765625 24.03125 0.765625 C 19.945312 0.765625 16.34375 -0.128906 13.21875 -1.921875 C 10.09375 -3.710938 7.691406 -6.28125 6.015625 -9.625 C 4.335938 -12.976562 3.5 -16.890625 3.5 -21.359375 C 3.5 -28.316406 5.3125 -33.722656 8.9375 -37.578125 C 12.570312 -41.441406 17.679688 -43.375 24.265625 -43.375 C 28.347656 -43.375 31.953125 -42.484375 35.078125 -40.703125 C 38.203125 -38.929688 40.601562 -36.378906 42.28125 -33.046875 C 43.957031 -29.722656 44.796875 -25.828125 44.796875 -21.359375 Z M 44.796875 -21.359375 "/></g></g><g transform="translate(675.120087, 380.250001)"><g><path d="M 4.453125 -5.453125 C 4.453125 -7.578125 5.023438 -9.1875 6.171875 -10.28125 C 7.316406 -11.375 8.976562 -11.921875 11.15625 -11.921875 C 13.269531 -11.921875 14.898438 -11.359375 16.046875 -10.234375 C 17.203125 -9.117188 17.78125 -7.523438 17.78125 -5.453125 C 17.78125 -3.441406 17.195312 -1.859375 16.03125 -0.703125 C 14.863281 0.453125 13.238281 1.03125 11.15625 1.03125 C 9.019531 1.03125 7.367188 0.46875 6.203125 -0.65625 C 5.035156 -1.789062 4.453125 -3.390625 4.453125 -5.453125 Z M 4.453125 -5.453125 "/></g></g><g transform="translate(697.362273, 380.250001)"><g><path d="M 23.390625 0.765625 C 10.128906 0.765625 3.5 -6.507812 3.5 -21.0625 C 3.5 -28.300781 5.300781 -33.828125 8.90625 -37.640625 C 12.519531 -41.460938 17.6875 -43.375 24.40625 -43.375 C 29.332031 -43.375 33.753906 -42.410156 37.671875 -40.484375 L 34.234375 -31.5 C 32.410156 -32.238281 30.710938 -32.84375 29.140625 -33.3125 C 27.566406 -33.78125 25.988281 -34.015625 24.40625 -34.015625 C 18.363281 -34.015625 15.34375 -29.722656 15.34375 -21.140625 C 15.34375 -12.804688 18.363281 -8.640625 24.40625 -8.640625 C 26.644531 -8.640625 28.71875 -8.9375 30.625 -9.53125 C 32.53125 -10.132812 34.429688 -11.070312 36.328125 -12.34375 L 36.328125 -2.40625 C 34.453125 -1.207031 32.554688 -0.378906 30.640625 0.078125 C 28.722656 0.535156 26.304688 0.765625 23.390625 0.765625 Z M 23.390625 0.765625 "/></g></g><g transform="translate(737.466764, 380.250001)"><g><path d="M 17.703125 0 L 6.09375 0 L 6.09375 -59.265625 L 17.703125 -59.265625 Z M 17.703125 0 "/></g></g></g></svg>